<mxfile host="app.diagrams.net" modified="2024-03-29T15:34:29.904Z" agent="Mozilla/5.0 (Windows NT 10.0; Win64; x64) AppleWebKit/537.36 (KHTML, like Gecko) Chrome/122.0.0.0 Safari/537.36" etag="3e4pFOABOsN-TLPNtzlf" version="24.2.0" type="google">
  <diagram name="Page-1" id="ErF3UrCvhecEXfrbGVfY">
    <mxGraphModel grid="1" page="1" gridSize="10" guides="1" tooltips="1" connect="1" arrows="1" fold="1" pageScale="1" pageWidth="827" pageHeight="1169" background="#ffffff" math="0" shadow="0">
      <root>
        <mxCell id="0" />
        <mxCell id="1" parent="0" />
        <mxCell id="JKeJxs9GmuVAHCyApGqQ-9" value="Start" style="ellipse;whiteSpace=wrap;html=1;fillColor=#dae8fc;strokeColor=#6c8ebf;" vertex="1" parent="1">
          <mxGeometry x="330" y="-10" width="120" height="80" as="geometry" />
        </mxCell>
        <mxCell id="JKeJxs9GmuVAHCyApGqQ-10" value="" style="endArrow=none;html=1;rounded=0;exitX=1.017;exitY=0.629;exitDx=0;exitDy=0;exitPerimeter=0;fillColor=#647687;strokeColor=#314354;" edge="1" parent="1" source="JKeJxs9GmuVAHCyApGqQ-9">
          <mxGeometry width="50" height="50" relative="1" as="geometry">
            <mxPoint x="380" y="200" as="sourcePoint" />
            <mxPoint x="670" y="40" as="targetPoint" />
            <Array as="points">
              <mxPoint x="670" y="40" />
            </Array>
          </mxGeometry>
        </mxCell>
        <mxCell id="JKeJxs9GmuVAHCyApGqQ-11" value="" style="endArrow=classic;html=1;rounded=0;exitX=0.586;exitY=1.021;exitDx=0;exitDy=0;fillColor=#ffe6cc;strokeColor=#d79b00;entryX=0.456;entryY=0;entryDx=0;entryDy=0;exitPerimeter=0;entryPerimeter=0;" edge="1" parent="1" source="JKeJxs9GmuVAHCyApGqQ-9" target="Thk5RWvW_DFEFs59MKBw-32">
          <mxGeometry width="50" height="50" relative="1" as="geometry">
            <mxPoint x="380" y="200" as="sourcePoint" />
            <mxPoint x="400" y="100" as="targetPoint" />
            <Array as="points" />
          </mxGeometry>
        </mxCell>
        <mxCell id="JKeJxs9GmuVAHCyApGqQ-15" value="check format&lt;div&gt;NULL&lt;/div&gt;" style="rhombus;whiteSpace=wrap;html=1;fillColor=#e1d5e7;strokeColor=#9673a6;" vertex="1" parent="1">
          <mxGeometry x="340" y="220" width="120" height="100" as="geometry" />
        </mxCell>
        <mxCell id="JKeJxs9GmuVAHCyApGqQ-17" value="" style="endArrow=classic;html=1;rounded=0;fillColor=#f5f5f5;strokeColor=#666666;" edge="1" parent="1">
          <mxGeometry width="50" height="50" relative="1" as="geometry">
            <mxPoint x="260" y="270" as="sourcePoint" />
            <mxPoint x="260" y="270" as="targetPoint" />
            <Array as="points">
              <mxPoint x="340" y="270" />
              <mxPoint x="300" y="270" />
              <mxPoint x="320" y="270" />
            </Array>
          </mxGeometry>
        </mxCell>
        <mxCell id="JKeJxs9GmuVAHCyApGqQ-24" value="" style="endArrow=none;html=1;rounded=0;exitX=0.5;exitY=0;exitDx=0;exitDy=0;fillColor=#b0e3e6;strokeColor=#0e8088;" edge="1" parent="1">
          <mxGeometry width="50" height="50" relative="1" as="geometry">
            <mxPoint x="190" y="230" as="sourcePoint" />
            <mxPoint x="190" y="130" as="targetPoint" />
            <Array as="points">
              <mxPoint x="190" y="190" />
            </Array>
          </mxGeometry>
        </mxCell>
        <mxCell id="JKeJxs9GmuVAHCyApGqQ-25" value="" style="endArrow=none;html=1;rounded=0;exitX=0.875;exitY=0.5;exitDx=0;exitDy=0;exitPerimeter=0;fillColor=#1ba1e2;strokeColor=#006EAF;" edge="1" parent="1" source="JKeJxs9GmuVAHCyApGqQ-27">
          <mxGeometry width="50" height="50" relative="1" as="geometry">
            <mxPoint x="70" y="130" as="sourcePoint" />
            <mxPoint x="80" y="130" as="targetPoint" />
            <Array as="points">
              <mxPoint x="190" y="130" />
            </Array>
          </mxGeometry>
        </mxCell>
        <mxCell id="JKeJxs9GmuVAHCyApGqQ-27" value="End loop" style="ellipse;shape=cloud;whiteSpace=wrap;html=1;fillColor=#647687;fontColor=#ffffff;strokeColor=#314354;" vertex="1" parent="1">
          <mxGeometry x="-120" y="90" width="190" height="80" as="geometry" />
        </mxCell>
        <mxCell id="JKeJxs9GmuVAHCyApGqQ-28" value="" style="endArrow=none;html=1;rounded=0;entryX=0.16;entryY=0.55;entryDx=0;entryDy=0;entryPerimeter=0;fillColor=#1ba1e2;strokeColor=#006EAF;" edge="1" parent="1" target="JKeJxs9GmuVAHCyApGqQ-27">
          <mxGeometry width="50" height="50" relative="1" as="geometry">
            <mxPoint x="-190" y="134" as="sourcePoint" />
            <mxPoint x="-120" y="120" as="targetPoint" />
          </mxGeometry>
        </mxCell>
        <mxCell id="JKeJxs9GmuVAHCyApGqQ-31" value="" style="endArrow=classic;html=1;rounded=0;exitX=1;exitY=0.5;exitDx=0;exitDy=0;entryX=0.048;entryY=0.496;entryDx=0;entryDy=0;entryPerimeter=0;fillColor=#ffe6cc;strokeColor=#d79b00;" edge="1" parent="1">
          <mxGeometry width="50" height="50" relative="1" as="geometry">
            <mxPoint x="466" y="270" as="sourcePoint" />
            <mxPoint x="643.6799999999998" y="269.68000000000006" as="targetPoint" />
          </mxGeometry>
        </mxCell>
        <mxCell id="JKeJxs9GmuVAHCyApGqQ-35" value="Return -1" style="ellipse;shape=cloud;whiteSpace=wrap;html=1;fillColor=#f5f5f5;fontColor=#333333;strokeColor=#666666;" vertex="1" parent="1">
          <mxGeometry x="630" y="230" width="160" height="80" as="geometry" />
        </mxCell>
        <mxCell id="JKeJxs9GmuVAHCyApGqQ-37" value="" style="endArrow=classic;html=1;rounded=0;fillColor=#b0e3e6;strokeColor=#0e8088;" edge="1" parent="1">
          <mxGeometry width="50" height="50" relative="1" as="geometry">
            <mxPoint x="190" y="400" as="sourcePoint" />
            <mxPoint x="190" y="410" as="targetPoint" />
            <Array as="points">
              <mxPoint x="190" y="310" />
              <mxPoint x="190" y="380" />
            </Array>
          </mxGeometry>
        </mxCell>
        <mxCell id="Thk5RWvW_DFEFs59MKBw-11" value="" style="edgeStyle=orthogonalEdgeStyle;rounded=0;orthogonalLoop=1;jettySize=auto;html=1;" edge="1" parent="1" source="JKeJxs9GmuVAHCyApGqQ-39" target="JKeJxs9GmuVAHCyApGqQ-45">
          <mxGeometry relative="1" as="geometry" />
        </mxCell>
        <mxCell id="JKeJxs9GmuVAHCyApGqQ-39" value="check if the&lt;div&gt;the current&amp;nbsp;&lt;/div&gt;&lt;div&gt;character is&lt;/div&gt;&lt;div&gt;different to %&lt;br&gt;&lt;div&gt;&lt;br&gt;&lt;/div&gt;&lt;/div&gt;" style="rhombus;whiteSpace=wrap;html=1;fillColor=#b1ddf0;strokeColor=#10739e;" vertex="1" parent="1">
          <mxGeometry x="120" y="410" width="140" height="100" as="geometry" />
        </mxCell>
        <mxCell id="JKeJxs9GmuVAHCyApGqQ-40" value="" style="endArrow=classic;html=1;rounded=0;fillColor=#d5e8d4;strokeColor=#82b366;" edge="1" parent="1">
          <mxGeometry width="50" height="50" relative="1" as="geometry">
            <mxPoint x="190" y="570" as="sourcePoint" />
            <mxPoint x="190" y="570" as="targetPoint" />
            <Array as="points">
              <mxPoint x="190" y="520" />
            </Array>
          </mxGeometry>
        </mxCell>
        <mxCell id="JKeJxs9GmuVAHCyApGqQ-41" value="" style="endArrow=classic;html=1;rounded=0;fillColor=#fad7ac;strokeColor=#b46504;" edge="1" parent="1">
          <mxGeometry width="50" height="50" relative="1" as="geometry">
            <mxPoint x="260" y="460" as="sourcePoint" />
            <mxPoint x="400" y="460" as="targetPoint" />
          </mxGeometry>
        </mxCell>
        <mxCell id="JKeJxs9GmuVAHCyApGqQ-43" value="" style="endArrow=classic;html=1;rounded=0;entryX=0.5;entryY=0;entryDx=0;entryDy=0;fillColor=#fad7ac;strokeColor=#b46504;" edge="1" parent="1" target="JKeJxs9GmuVAHCyApGqQ-46">
          <mxGeometry width="50" height="50" relative="1" as="geometry">
            <mxPoint x="400" y="460" as="sourcePoint" />
            <mxPoint x="400" y="570" as="targetPoint" />
          </mxGeometry>
        </mxCell>
        <mxCell id="JKeJxs9GmuVAHCyApGqQ-45" value="print the current charcter&lt;div&gt;increment lengtn++&lt;/div&gt;" style="shape=document;whiteSpace=wrap;html=1;boundedLbl=1;fillColor=#d5e8d4;strokeColor=#82b366;" vertex="1" parent="1">
          <mxGeometry x="130" y="570" width="120" height="80" as="geometry" />
        </mxCell>
        <mxCell id="Thk5RWvW_DFEFs59MKBw-17" style="edgeStyle=orthogonalEdgeStyle;rounded=0;orthogonalLoop=1;jettySize=auto;html=1;" edge="1" parent="1">
          <mxGeometry relative="1" as="geometry">
            <mxPoint x="400" y="540" as="targetPoint" />
            <mxPoint x="400" y="550" as="sourcePoint" />
          </mxGeometry>
        </mxCell>
        <mxCell id="JKeJxs9GmuVAHCyApGqQ-46" value="&lt;br&gt;check in the&lt;br&gt;&amp;nbsp;next&lt;div&gt;&lt;span style=&quot;background-color: initial;&quot;&gt;char % is i, d ,s ,c&amp;nbsp;&lt;/span&gt;&lt;/div&gt;&lt;div&gt;or %&lt;br&gt;&lt;div&gt;&lt;div&gt;&lt;br&gt;&lt;/div&gt;&lt;/div&gt;&lt;/div&gt;" style="rhombus;whiteSpace=wrap;html=1;fillColor=#fad9d5;strokeColor=#ae4132;" vertex="1" parent="1">
          <mxGeometry x="330" y="550" width="140" height="100" as="geometry" />
        </mxCell>
        <mxCell id="JKeJxs9GmuVAHCyApGqQ-47" value="" style="endArrow=classic;html=1;rounded=0;fillColor=#f8cecc;strokeColor=#b85450;" edge="1" parent="1">
          <mxGeometry width="50" height="50" relative="1" as="geometry">
            <mxPoint x="400" y="730" as="sourcePoint" />
            <mxPoint x="400" y="760" as="targetPoint" />
            <Array as="points">
              <mxPoint x="400" y="650" />
            </Array>
          </mxGeometry>
        </mxCell>
        <mxCell id="JKeJxs9GmuVAHCyApGqQ-49" value="increment i by 1" style="rounded=1;whiteSpace=wrap;html=1;fillColor=#dae8fc;strokeColor=#6c8ebf;" vertex="1" parent="1">
          <mxGeometry x="110" y="690" width="180" height="30" as="geometry" />
        </mxCell>
        <mxCell id="JKeJxs9GmuVAHCyApGqQ-53" value="print the %and the next caracter increment&lt;div&gt;length by 2&lt;/div&gt;" style="rounded=1;whiteSpace=wrap;html=1;fillColor=#e1d5e7;strokeColor=#9673a6;" vertex="1" parent="1">
          <mxGeometry x="580" y="570" width="160" height="60" as="geometry" />
        </mxCell>
        <mxCell id="JKeJxs9GmuVAHCyApGqQ-55" value="- call the function correspending to the specifier&lt;div&gt;&lt;br&gt;&lt;div&gt;- update length according to&lt;/div&gt;&lt;div&gt;the output of the function&lt;/div&gt;&lt;/div&gt;" style="whiteSpace=wrap;html=1;aspect=fixed;fillColor=#ffe6cc;strokeColor=#d79b00;" vertex="1" parent="1">
          <mxGeometry x="320" y="760" width="160" height="160" as="geometry" />
        </mxCell>
        <mxCell id="JKeJxs9GmuVAHCyApGqQ-56" value="" style="endArrow=classic;html=1;rounded=0;exitX=0.5;exitY=1;exitDx=0;exitDy=0;fillColor=#f8cecc;strokeColor=#b85450;" edge="1" parent="1" source="JKeJxs9GmuVAHCyApGqQ-55">
          <mxGeometry width="50" height="50" relative="1" as="geometry">
            <mxPoint x="370" y="940" as="sourcePoint" />
            <mxPoint x="400" y="980" as="targetPoint" />
          </mxGeometry>
        </mxCell>
        <mxCell id="JKeJxs9GmuVAHCyApGqQ-59" value="continue the loop" style="rounded=1;whiteSpace=wrap;html=1;fillColor=#e1d5e7;strokeColor=#9673a6;" vertex="1" parent="1">
          <mxGeometry x="320" y="990" width="160" height="50" as="geometry" />
        </mxCell>
        <mxCell id="JKeJxs9GmuVAHCyApGqQ-60" value="" style="endArrow=classic;html=1;rounded=0;fillColor=#d5e8d4;strokeColor=#82b366;" edge="1" parent="1">
          <mxGeometry width="50" height="50" relative="1" as="geometry">
            <mxPoint x="660" y="640" as="sourcePoint" />
            <mxPoint x="660" y="1120" as="targetPoint" />
            <Array as="points">
              <mxPoint x="660" y="730" />
            </Array>
          </mxGeometry>
        </mxCell>
        <mxCell id="JKeJxs9GmuVAHCyApGqQ-61" value="" style="endArrow=none;html=1;rounded=0;fillColor=#d5e8d4;strokeColor=#82b366;" edge="1" parent="1">
          <mxGeometry width="50" height="50" relative="1" as="geometry">
            <mxPoint x="130" y="1120" as="sourcePoint" />
            <mxPoint x="660" y="1119" as="targetPoint" />
            <Array as="points">
              <mxPoint x="430" y="1119" />
            </Array>
          </mxGeometry>
        </mxCell>
        <mxCell id="JKeJxs9GmuVAHCyApGqQ-63" value="" style="endArrow=classic;html=1;rounded=0;fillColor=#d5e8d4;strokeColor=#82b366;" edge="1" parent="1">
          <mxGeometry width="50" height="50" relative="1" as="geometry">
            <mxPoint x="130" y="1120" as="sourcePoint" />
            <mxPoint x="130" y="730" as="targetPoint" />
          </mxGeometry>
        </mxCell>
        <mxCell id="JKeJxs9GmuVAHCyApGqQ-64" value="" style="endArrow=none;html=1;rounded=0;entryX=0;entryY=0.5;entryDx=0;entryDy=0;fillColor=#dae8fc;strokeColor=#6c8ebf;" edge="1" parent="1" target="JKeJxs9GmuVAHCyApGqQ-59">
          <mxGeometry width="50" height="50" relative="1" as="geometry">
            <mxPoint x="260" y="1015" as="sourcePoint" />
            <mxPoint x="310" y="1020" as="targetPoint" />
          </mxGeometry>
        </mxCell>
        <mxCell id="JKeJxs9GmuVAHCyApGqQ-65" value="" style="endArrow=classic;html=1;rounded=0;fillColor=#dae8fc;strokeColor=#6c8ebf;" edge="1" parent="1">
          <mxGeometry width="50" height="50" relative="1" as="geometry">
            <mxPoint x="260" y="740" as="sourcePoint" />
            <mxPoint x="260" y="730" as="targetPoint" />
            <Array as="points">
              <mxPoint x="260" y="1020" />
            </Array>
          </mxGeometry>
        </mxCell>
        <mxCell id="JKeJxs9GmuVAHCyApGqQ-66" value="Text" style="edgeLabel;html=1;align=center;verticalAlign=middle;resizable=0;points=[];" vertex="1" connectable="0" parent="JKeJxs9GmuVAHCyApGqQ-65">
          <mxGeometry x="0.912" y="-2" relative="1" as="geometry">
            <mxPoint as="offset" />
          </mxGeometry>
        </mxCell>
        <mxCell id="JKeJxs9GmuVAHCyApGqQ-67" value="" style="endArrow=none;html=1;rounded=0;fillColor=#e51400;strokeColor=#B20000;" edge="1" parent="1">
          <mxGeometry width="50" height="50" relative="1" as="geometry">
            <mxPoint x="806" y="270" as="sourcePoint" />
            <mxPoint x="826" y="270" as="targetPoint" />
            <Array as="points">
              <mxPoint x="776" y="270" />
            </Array>
          </mxGeometry>
        </mxCell>
        <mxCell id="JKeJxs9GmuVAHCyApGqQ-68" value="" style="endArrow=none;html=1;rounded=0;" edge="1" parent="1">
          <mxGeometry width="50" height="50" relative="1" as="geometry">
            <mxPoint x="820" y="270" as="sourcePoint" />
            <mxPoint x="820" y="270" as="targetPoint" />
            <Array as="points">
              <mxPoint x="820" y="270" />
            </Array>
          </mxGeometry>
        </mxCell>
        <mxCell id="JKeJxs9GmuVAHCyApGqQ-69" value="" style="endArrow=none;html=1;rounded=0;fillColor=#e51400;strokeColor=#B20000;" edge="1" parent="1">
          <mxGeometry width="50" height="50" relative="1" as="geometry">
            <mxPoint x="827" y="378" as="sourcePoint" />
            <mxPoint x="827" y="1167" as="targetPoint" />
            <Array as="points">
              <mxPoint x="827" y="269" />
            </Array>
          </mxGeometry>
        </mxCell>
        <mxCell id="JKeJxs9GmuVAHCyApGqQ-70" value="" style="endArrow=classic;html=1;rounded=0;fillColor=#e51400;strokeColor=#B20000;" edge="1" parent="1" target="JKeJxs9GmuVAHCyApGqQ-71">
          <mxGeometry width="50" height="50" relative="1" as="geometry">
            <mxPoint x="600" y="1170" as="sourcePoint" />
            <mxPoint x="560" y="1170" as="targetPoint" />
            <Array as="points">
              <mxPoint x="830" y="1170" />
            </Array>
          </mxGeometry>
        </mxCell>
        <mxCell id="JKeJxs9GmuVAHCyApGqQ-71" value="END" style="ellipse;whiteSpace=wrap;html=1;fillColor=#fad9d5;strokeColor=#ae4132;" vertex="1" parent="1">
          <mxGeometry x="360" y="1130" width="160" height="80" as="geometry" />
        </mxCell>
        <mxCell id="JKeJxs9GmuVAHCyApGqQ-72" value="" style="endArrow=none;html=1;rounded=0;fillColor=#1ba1e2;strokeColor=#006EAF;" edge="1" parent="1">
          <mxGeometry width="50" height="50" relative="1" as="geometry">
            <mxPoint x="-190" y="134" as="sourcePoint" />
            <mxPoint x="-190" y="1174" as="targetPoint" />
            <Array as="points" />
          </mxGeometry>
        </mxCell>
        <mxCell id="JKeJxs9GmuVAHCyApGqQ-73" value="" style="endArrow=classic;html=1;rounded=0;fillColor=#1ba1e2;strokeColor=#006EAF;" edge="1" parent="1">
          <mxGeometry width="50" height="50" relative="1" as="geometry">
            <mxPoint x="-64" y="1170" as="sourcePoint" />
            <mxPoint x="76" y="1170" as="targetPoint" />
            <Array as="points">
              <mxPoint x="-174" y="1170" />
            </Array>
          </mxGeometry>
        </mxCell>
        <mxCell id="JKeJxs9GmuVAHCyApGqQ-74" value="return length" style="rounded=1;whiteSpace=wrap;html=1;fillColor=#fad9d5;strokeColor=#ae4132;" vertex="1" parent="1">
          <mxGeometry x="80" y="1140" width="150" height="60" as="geometry" />
        </mxCell>
        <mxCell id="JKeJxs9GmuVAHCyApGqQ-75" value="" style="endArrow=classic;html=1;rounded=0;exitX=1;exitY=0.5;exitDx=0;exitDy=0;fillColor=#1ba1e2;strokeColor=#006EAF;" edge="1" parent="1">
          <mxGeometry width="50" height="50" relative="1" as="geometry">
            <mxPoint x="236" y="1170" as="sourcePoint" />
            <mxPoint x="356" y="1170" as="targetPoint" />
          </mxGeometry>
        </mxCell>
        <mxCell id="Thk5RWvW_DFEFs59MKBw-1" value="&amp;nbsp; &amp;nbsp; &amp;nbsp; &amp;nbsp; &amp;nbsp; &amp;nbsp; &amp;nbsp; &amp;nbsp; &amp;nbsp; &amp;nbsp;int _printf (const * format, ...)" style="text;html=1;align=center;verticalAlign=middle;resizable=0;points=[];autosize=1;strokeColor=none;fillColor=none;" vertex="1" parent="1">
          <mxGeometry x="390" y="-2" width="240" height="30" as="geometry" />
        </mxCell>
        <mxCell id="Thk5RWvW_DFEFs59MKBw-3" value="false" style="text;html=1;align=center;verticalAlign=middle;resizable=0;points=[];autosize=1;strokeColor=none;fillColor=none;" vertex="1" parent="1">
          <mxGeometry x="275" y="238" width="50" height="30" as="geometry" />
        </mxCell>
        <mxCell id="Thk5RWvW_DFEFs59MKBw-4" value="true" style="text;html=1;align=center;verticalAlign=middle;resizable=0;points=[];autosize=1;strokeColor=none;fillColor=none;" vertex="1" parent="1">
          <mxGeometry x="510" y="238" width="40" height="30" as="geometry" />
        </mxCell>
        <mxCell id="Thk5RWvW_DFEFs59MKBw-6" value="loop through&lt;div&gt;format string&lt;/div&gt;&lt;div&gt;while&lt;/div&gt;&lt;div&gt;(format [i] ! = &#39;\0&#39;&lt;/div&gt;&lt;div&gt;&lt;br&gt;&lt;/div&gt;" style="shape=hexagon;perimeter=hexagonPerimeter2;whiteSpace=wrap;html=1;fixedSize=1;fillColor=#f8cecc;strokeColor=#b85450;" vertex="1" parent="1">
          <mxGeometry x="90" y="230" width="170" height="80" as="geometry" />
        </mxCell>
        <mxCell id="Thk5RWvW_DFEFs59MKBw-7" value="false" style="text;html=1;align=center;verticalAlign=middle;resizable=0;points=[];autosize=1;strokeColor=none;fillColor=none;" vertex="1" parent="1">
          <mxGeometry x="275" y="418" width="50" height="30" as="geometry" />
        </mxCell>
        <mxCell id="Thk5RWvW_DFEFs59MKBw-15" value="" style="endArrow=none;html=1;rounded=0;exitX=0.444;exitY=0;exitDx=0;exitDy=0;exitPerimeter=0;fillColor=#d5e8d4;strokeColor=#82b366;" edge="1" parent="1" source="JKeJxs9GmuVAHCyApGqQ-49">
          <mxGeometry width="50" height="50" relative="1" as="geometry">
            <mxPoint x="140" y="690" as="sourcePoint" />
            <mxPoint x="190" y="640" as="targetPoint" />
          </mxGeometry>
        </mxCell>
        <mxCell id="Thk5RWvW_DFEFs59MKBw-16" value="true" style="text;html=1;align=center;verticalAlign=middle;resizable=0;points=[];autosize=1;strokeColor=none;fillColor=none;" vertex="1" parent="1">
          <mxGeometry x="130" y="518" width="40" height="30" as="geometry" />
        </mxCell>
        <mxCell id="Thk5RWvW_DFEFs59MKBw-23" value="" style="endArrow=classic;html=1;rounded=0;exitX=1;exitY=0.5;exitDx=0;exitDy=0;entryX=0;entryY=0.5;entryDx=0;entryDy=0;fillColor=#f8cecc;strokeColor=#b85450;" edge="1" parent="1" source="JKeJxs9GmuVAHCyApGqQ-46" target="JKeJxs9GmuVAHCyApGqQ-53">
          <mxGeometry width="50" height="50" relative="1" as="geometry">
            <mxPoint x="490" y="635" as="sourcePoint" />
            <mxPoint x="540" y="585" as="targetPoint" />
          </mxGeometry>
        </mxCell>
        <mxCell id="Thk5RWvW_DFEFs59MKBw-24" value="&amp;nbsp;true" style="text;html=1;align=center;verticalAlign=middle;resizable=0;points=[];autosize=1;strokeColor=none;fillColor=none;" vertex="1" parent="1">
          <mxGeometry x="390" y="690" width="50" height="30" as="geometry" />
        </mxCell>
        <mxCell id="Thk5RWvW_DFEFs59MKBw-25" value="false" style="text;html=1;align=center;verticalAlign=middle;resizable=0;points=[];autosize=1;strokeColor=none;fillColor=none;" vertex="1" parent="1">
          <mxGeometry x="475" y="558" width="50" height="30" as="geometry" />
        </mxCell>
        <mxCell id="Thk5RWvW_DFEFs59MKBw-30" value="" style="endArrow=classic;html=1;rounded=0;exitX=0.5;exitY=1;exitDx=0;exitDy=0;entryX=0.5;entryY=0;entryDx=0;entryDy=0;fillColor=#d5e8d4;strokeColor=#82b366;" edge="1" parent="1" target="JKeJxs9GmuVAHCyApGqQ-15">
          <mxGeometry width="50" height="50" relative="1" as="geometry">
            <mxPoint x="400" y="160" as="sourcePoint" />
            <mxPoint x="220" y="180" as="targetPoint" />
            <Array as="points" />
          </mxGeometry>
        </mxCell>
        <mxCell id="Thk5RWvW_DFEFs59MKBw-32" value="declaration and initialization&lt;div&gt;of variables i , length , ...&lt;/div&gt;" style="rounded=1;whiteSpace=wrap;html=1;fillColor=#d5e8d4;strokeColor=#82b366;" vertex="1" parent="1">
          <mxGeometry x="300" y="110" width="220" height="60" as="geometry" />
        </mxCell>
      </root>
    </mxGraphModel>
  </diagram>
</mxfile>
